<svg width="306" height="82" viewBox="0 0 306 82" fill="none" xmlns="http://www.w3.org/2000/svg">
  <path fill-rule="evenodd" clip-rule="evenodd" d="M0 20.7509V81.8311H12.2388H54.0066H61.5979H66.2445V40.2036H54.0066V69.5938H12.2388V32.9891H22.0906V61.0811H34.3285V32.9891H50.2896V20.7509H34.3285V12.2391H66.2445V0H34.3285H22.0906V12.2391V20.7509H12.2388H0Z" fill="#1a56db"/>
  <path fill-rule="evenodd" clip-rule="evenodd" d="M81.8626 33.8546V39.2995H77.457V47.0708H81.8626V70.016H91.5922V47.0708H102.852V70.016H112.642V39.2995H91.593V34.2829C91.593 31.8361 93.2448 30.428 95.6935 30.428C96.4279 30.428 97.2845 30.6119 98.1403 30.7948L99.9153 23.0851C98.1404 22.4114 96.2441 22.0447 94.3469 22.0447C86.8197 22.0447 81.8636 26.6339 81.8636 33.8546H81.8626ZM102.056 30.2442C102.056 33.3647 104.381 35.6901 107.747 35.6901C110.99 35.6901 113.376 33.3647 113.376 30.2442C113.376 27.2451 110.99 24.6753 107.747 24.6753C104.381 24.6753 102.056 27.2451 102.056 30.2442Z" fill="#1a56db"/>
  <path fill-rule="evenodd" clip-rule="evenodd" d="M118.883 48.784C118.883 53.6177 122.126 56.6766 127.816 57.7179L134.058 58.9422C136.322 59.3705 137.117 60.1656 137.117 61.206C137.117 62.5517 135.709 63.6528 133.139 63.6528C130.509 63.6528 128.122 62.6739 127.694 60.0433L118.148 62.0011C119.188 68.3036 125.369 70.935 132.589 70.935C140.667 70.935 146.541 67.3863 146.541 60.5939C146.541 56.0671 143.849 52.579 138.035 51.3548L130.815 49.886C128.856 49.4577 128.489 48.6011 128.489 47.7444C128.489 46.6433 129.346 45.3584 131.977 45.3584C134.975 45.3584 136.811 47.0725 137.117 48.9687L146.051 47.1947C144.827 41.8703 139.749 38.3831 132.1 38.3831C124.328 38.3831 118.883 42.4833 118.883 48.7849V48.784Z" fill="#1a56db"/>
  <path fill-rule="evenodd" clip-rule="evenodd" d="M149.539 54.6579C149.539 64.387 157.127 70.9339 166.306 70.9339C173.955 70.9339 180.441 66.2225 181.971 58.942L172.975 56.9834C171.936 60.7151 169.426 62.3676 166.306 62.3676C161.9 62.3676 158.963 59.1865 158.963 54.6579C158.963 50.1919 161.9 46.9483 166.306 46.9483C169.426 46.9483 171.936 48.6624 172.791 52.3941L181.97 50.191C180.256 42.9703 173.77 38.3811 166.305 38.3811C157.127 38.3811 149.538 44.9897 149.538 54.6571L149.539 54.6579Z" fill="#1a56db"/>
  <path fill-rule="evenodd" clip-rule="evenodd" d="M186.375 48.0495L195.615 49.9457C196.104 47.2544 197.819 46.0909 200.755 46.0909C203.325 46.0909 205.1 47.805 205.1 50.3749V50.9861H197.268C189.068 50.9861 184.479 54.9025 184.479 60.8981C184.479 66.9552 189.069 70.9332 195.921 70.9332C200.022 70.9332 202.959 69.5875 205.1 67.752V70.0158H214.523V50.5587C214.523 42.7268 209.078 38.3821 200.449 38.3821C193.107 38.3821 187.722 42.1147 186.376 48.0495H186.375ZM194.391 60.41C194.391 58.5129 195.921 57.2279 198.368 57.2279H205.099V57.9016C205.099 61.3282 202.04 63.592 198.674 63.592C196.104 63.592 194.39 62.3677 194.39 60.4108L194.391 60.41Z" fill="#1a56db"/>
  <path fill-rule="evenodd" clip-rule="evenodd" d="M220.091 22.9022V60.287C220.091 66.6511 224.313 70.9334 230.677 70.9334C234.226 70.9334 236.123 69.8929 237.898 69.0372L236.368 61.3881C234.961 61.8771 233.676 62.2448 232.819 62.2448C231.044 62.2448 229.882 61.1437 229.882 59.5527V22.9014H220.091V22.9022Z" fill="#1a56db"/>
  <path fill-rule="evenodd" clip-rule="evenodd" d="M239.672 64.8156C239.672 67.9361 241.997 70.3221 245.24 70.3221C248.484 70.3221 250.87 67.9361 250.87 64.8156C250.87 61.8781 248.484 59.3091 245.24 59.3091C241.997 59.3091 239.672 61.8781 239.672 64.8156Z" fill="#1a56db"/>
  <path fill-rule="evenodd" clip-rule="evenodd" d="M256.069 30.2443C256.069 33.3647 258.395 35.6901 261.699 35.6901C265.004 35.6901 267.39 33.3647 267.39 30.2443C267.39 27.2452 265.004 24.6753 261.699 24.6753C258.395 24.6753 256.069 27.2452 256.069 30.2443ZM256.804 70.016H266.595V39.2996H256.804V70.016Z" fill="#1a56db"/>
  <path fill-rule="evenodd" clip-rule="evenodd" d="M272.161 54.658C272.161 64.387 279.872 70.8733 289.172 70.8733C298.29 70.8733 306 64.387 306 54.658C306 44.9905 298.29 38.5051 289.172 38.5051C279.872 38.5051 272.161 44.9905 272.161 54.658ZM281.585 54.658C281.585 49.8858 285.195 46.7038 289.171 46.7038C292.966 46.7038 296.576 49.8849 296.576 54.658C296.576 59.4926 292.966 62.613 289.171 62.613C285.195 62.613 281.585 59.4926 281.585 54.658Z" fill="#1a56db"/>
</svg>
